<?xml version="1.0" encoding="iso-8859-1"?>
<!-- Uploaded to: SVG Repo, www.svgrepo.com, Generator: SVG Repo Mixer Tools -->
<svg fill="#000000" height="800px" width="800px" version="1.1" id="Layer_1" xmlns="http://www.w3.org/2000/svg" xmlns:xlink="http://www.w3.org/1999/xlink" 
	 viewBox="0 0 511.999 511.999" xml:space="preserve">
<g>
	<g>
		<path d="M316.261,118.721l-19.542,19.542l37.684,37.683l61.343-61.343C372.426,95.643,337.968,97.014,316.261,118.721z"/>
	</g>
</g>
<g>
	<g>
		<polygon points="256.66,178.322 227.998,149.66 213.958,163.7 201.495,151.237 331.217,21.515 309.702,0 28.743,280.959 
			50.258,302.474 179.98,172.752 192.443,185.214 178.403,199.254 214.818,235.669 226.611,283.737 312.889,197.461 
			275.205,159.777 		"/>
	</g>
</g>
<g>
	<g>
		<path d="M480.142,110.931c-6.996-6.996-15.671-11.307-24.74-12.955L156.674,396.705l-96.043-54.519l-42.499,42.499
			l127.315,127.315L291.116,366.33l43.03,43.03l140.552-140.552l-21.515-21.515L334.146,366.332l-21.516-21.516l167.512-167.512
			C498.442,159.005,498.442,129.229,480.142,110.931z"/>
	</g>
</g>
</svg>