<?xml version="1.0" encoding="iso-8859-1"?>
<!-- Uploaded to: SVG Repo, www.svgrepo.com, Generator: SVG Repo Mixer Tools -->
<svg fill="#000000" version="1.1" id="Layer_1" xmlns="http://www.w3.org/2000/svg" xmlns:xlink="http://www.w3.org/1999/xlink" 
	 viewBox="0 0 512.004 512.004" xml:space="preserve">
<g>
	<g>
		<path d="M403.906,208.568l21.462-21.462l-20.005-20.005l77.408-57.691l-80.174-80.174l-57.691,77.407L324.901,86.64
			l-21.462,21.462l21.685,21.685L81.336,373.573l57.097,57.097l49.193-49.192l62.543,62.543l51.691-51.69l-26.687-26.687
			c13.672-21.853,13.672-49.861,0-71.712l20.598-20.598l62.543,62.543l51.69-51.691l-62.543-62.543l34.759-34.759L403.906,208.568z
			 M252.654,343.126l-6.669-6.669l-6.669-6.669l13.339-13.339C255.923,325.017,255.923,334.556,252.654,343.126z"/>
	</g>
</g>
<g>
	<g>
		<polygon points="423.215,6.931 505.076,88.792 512.004,0.003 		"/>
	</g>
</g>
<g>
	<g>
		
			<rect x="32.388" y="387.393" transform="matrix(0.7071 -0.7071 0.7071 0.7071 -296.8304 176.9721)" width="65.641" height="118.798"/>
	</g>
</g>
</svg>