<?xml version="1.0" encoding="iso-8859-1"?>
<!-- Uploaded to: SVG Repo, www.svgrepo.com, Generator: SVG Repo Mixer Tools -->
<svg fill="#000000" height="800px" width="800px" version="1.1" id="Layer_1" xmlns="http://www.w3.org/2000/svg" xmlns:xlink="http://www.w3.org/1999/xlink" 
	 viewBox="0 0 512 512" xml:space="preserve">
<g>
	<g>
		<path d="M255.999,321.364c-31.083,0-56.372,25.288-56.372,56.372s25.288,56.372,56.372,56.372
			c31.084,0,56.372-25.288,56.372-56.372S287.084,321.364,255.999,321.364z"/>
	</g>
</g>
<g>
	<g>
		<path d="M300.413,251.031l82.626-46.739L340.865,15.66l-65.146,229.265c-6.438-0.952-13.022-1.452-19.719-1.452
			c-3.92,0-7.798,0.178-11.634,0.51L313.693,0H174.635l-45.674,204.292l82.626,46.739c-52.272,18.376-89.85,68.231-89.85,126.705
			C121.737,451.77,181.967,512,256,512s134.263-60.231,134.263-134.264C390.263,319.262,352.685,269.407,300.413,251.031z
			 M255.999,464.525c-47.855,0-86.789-38.933-86.789-86.789s38.933-86.789,86.789-86.789s86.79,38.933,86.79,86.789
			S303.856,464.525,255.999,464.525z"/>
	</g>
</g>
</svg>