<?xml version="1.0" encoding="iso-8859-1"?>
<!-- Uploaded to: SVG Repo, www.svgrepo.com, Generator: SVG Repo Mixer Tools -->
<svg fill="#000000" version="1.1" id="Layer_1" xmlns="http://www.w3.org/2000/svg" xmlns:xlink="http://www.w3.org/1999/xlink" 
	 viewBox="0 0 512 512" xml:space="preserve">
<g>
	<g>
		<path d="M506.192,16.769l-2.234-8.727l-8.726-2.234c-3.949-1.011-97.322-24.14-151.038,29.576
			c-36.509,36.509-36.509,95.915,0,132.423c36.509,36.509,95.914,36.509,132.423,0C530.332,114.091,507.203,20.718,506.192,16.769z
			 M434.324,125.515c-6.388,6.389-14.882,9.907-23.917,9.908c-9.038,0-17.533-3.519-23.921-9.909
			c-13.189-13.189-13.189-34.649,0-47.837c14.734-14.735,39.386-17.828,57.47-17.828c1.083,0,2.152,0.01,3.207,0.03l4.879,0.094
			l0.091,4.88C452.492,84.042,449.696,110.142,434.324,125.515z"/>
	</g>
</g>
<g>
	<g>
		<path d="M293.043,284.199c-1.292-3.911-0.317-8.143,2.541-11.079l18.394-18.393l-56.705-56.705l-18.367,18.366
			c-2.928,2.872-7.16,3.86-11.075,2.578c-0.117-0.037-0.236-0.077-0.377-0.122l-0.205-0.067
			c-30.13-9.768-62.741-1.941-85.107,20.425L10.324,371.021C3.666,377.68,0,386.532,0,395.947
			c0.001,9.416,3.667,18.269,10.325,24.926l80.801,80.802c0,0,0.001,0.001,0.002,0.002C97.785,508.333,106.637,512,116.053,512
			c9.416,0,18.268-3.666,24.926-10.324l131.818-131.818c22.369-22.368,30.195-54.981,20.424-85.113L293.043,284.199z
			 M167.895,431.747l-87.642-87.642l69.193-69.193l87.642,87.642L167.895,431.747z"/>
	</g>
</g>
<g>
	<g>
		
			<rect x="302.681" y="154.025" transform="matrix(0.7071 -0.7071 0.7071 0.7071 -44.1576 281.6382)" width="30.415" height="80.193"/>
	</g>
</g>
</svg>