<?xml version="1.0" encoding="iso-8859-1"?>
<!-- Uploaded to: SVG Repo, www.svgrepo.com, Generator: SVG Repo Mixer Tools -->
<svg fill="#000000" height="800px" width="800px" version="1.1" id="Layer_1" xmlns="http://www.w3.org/2000/svg" xmlns:xlink="http://www.w3.org/1999/xlink" 
	 viewBox="0 0 512.001 512.001" xml:space="preserve">
<g>
	<g>
		<polygon points="429.343,5.016 407.849,26.509 381.34,0 359.845,21.494 386.354,48.003 294.364,139.993 275.865,121.494 
			223.885,173.473 245.379,194.967 270.734,220.321 284.939,234.527 471.896,47.569 		"/>
	</g>
</g>
<g>
	<g>
		<path d="M412.452,270.316l-14.671,3.916c-31.666,8.453-65.441,1.27-90.843-18.716l-70.102,70.102
			c7.381,6.546,15.209,12.527,23.416,17.903l-29.805,29.805l-12.102-29.217l-70.046,70.046l40.529,97.845l84.553-35.023
			l-30.343-73.253l44.973-44.973c10.37,4.669,21.139,8.474,32.206,11.332c33.763,8.721,69.417,8.577,103.109-0.416l14.698-3.923
			L412.452,270.316z"/>
	</g>
</g>
<g>
	<g>
		<polygon points="253.169,245.745 223.885,216.462 202.39,194.967 40.105,357.254 101.158,418.308 263.444,256.021 		"/>
	</g>
</g>
</svg>